<?xml version="1.0" encoding="UTF-8"?><svg xmlns="http://www.w3.org/2000/svg" xmlns:xlink="http://www.w3.org/1999/xlink" contentScriptType="text/ecmascript" width="375" zoomAndPan="magnify" contentStyleType="text/css" viewBox="0 0 375 374.999991" height="374.999991" preserveAspectRatio="xMidYMid meet" version="1.0"><defs><clipPath id="clip-0"><path d="M 112.984375 114.289062 L 262 114.289062 L 262 260.539062 L 112.984375 260.539062 Z M 112.984375 114.289062 " clip-rule="nonzero"/></clipPath></defs><g clip-path="url(#clip-0)"><path fill="rgb(21.958923%, 71.369934%, 100%)" d="M 168.640625 232.921875 L 174.15625 220.546875 L 178.621094 222.527344 L 173.308594 234.449219 C 177.410156 235.566406 181.71875 236.164062 186.164062 236.164062 C 192.085938 236.164062 197.765625 235.105469 203.023438 233.171875 L 201.175781 230.105469 L 205.367188 227.597656 L 207.558594 231.238281 C 215.449219 227.390625 222.15625 221.484375 226.964844 214.222656 L 219.023438 208.941406 L 221.734375 204.886719 L 229.457031 210.019531 C 232.664062 203.9375 234.621094 197.101562 234.980469 189.851562 L 227.710938 189.851562 L 227.710938 184.976562 L 234.980469 184.976562 C 234.125 167.714844 224.222656 152.789062 209.917969 144.820312 L 207.960938 149.375 L 203.46875 147.453125 L 205.53125 142.65625 C 201.347656 140.851562 196.863281 139.609375 192.175781 139.03125 C 191.132812 139.84375 189.925781 140.453125 188.609375 140.792969 L 188.609375 150.851562 L 183.722656 150.851562 L 183.722656 140.792969 C 182.40625 140.453125 181.195312 139.84375 180.15625 139.03125 C 165.253906 140.863281 152.40625 149.410156 144.761719 161.535156 L 150.925781 165.929688 L 148.085938 169.898438 L 142.355469 165.8125 C 139.457031 171.640625 137.6875 178.125 137.347656 184.976562 L 149.507812 184.976562 L 149.507812 189.851562 L 137.347656 189.851562 C 137.5625 194.203125 138.359375 198.40625 139.648438 202.386719 L 150.957031 197.371094 L 152.941406 201.828125 L 141.386719 206.949219 C 146.617188 218.824219 156.460938 228.238281 168.640625 232.921875 Z M 132.398438 233.726562 C 132.398438 236.414062 134.59375 238.601562 137.285156 238.601562 C 139.980469 238.601562 142.175781 236.414062 142.175781 233.726562 C 142.175781 231.039062 139.980469 228.851562 137.285156 228.851562 C 134.59375 228.851562 132.398438 231.039062 132.398438 233.726562 Z M 191.050781 131.351562 C 191.050781 128.664062 188.859375 126.476562 186.164062 126.476562 C 183.46875 126.476562 181.277344 128.664062 181.277344 131.351562 C 181.277344 132.304688 181.558594 133.191406 182.035156 133.945312 C 183.398438 133.84375 184.773438 133.789062 186.164062 133.789062 C 187.554688 133.789062 188.933594 133.84375 190.296875 133.945312 C 190.773438 133.191406 191.050781 132.304688 191.050781 131.351562 Z M 122.625 206.914062 C 119.929688 206.914062 117.734375 209.101562 117.734375 211.789062 C 117.734375 214.476562 119.929688 216.664062 122.625 216.664062 C 125.316406 216.664062 127.511719 214.476562 127.511719 211.789062 C 127.511719 209.101562 125.316406 206.914062 122.625 206.914062 Z M 159.28125 250.789062 C 159.28125 253.476562 161.476562 255.664062 164.167969 255.664062 C 166.863281 255.664062 169.058594 253.476562 169.058594 250.789062 C 169.058594 248.101562 166.863281 245.914062 164.167969 245.914062 C 161.476562 245.914062 159.28125 248.101562 159.28125 250.789062 Z M 213.046875 250.789062 C 215.742188 250.789062 217.933594 248.601562 217.933594 245.914062 C 217.933594 243.226562 215.742188 241.039062 213.046875 241.039062 C 210.351562 241.039062 208.160156 243.226562 208.160156 245.914062 C 208.160156 248.601562 210.351562 250.789062 213.046875 250.789062 Z M 249.707031 231.289062 C 252.402344 231.289062 254.59375 229.101562 254.59375 226.414062 C 254.59375 223.726562 252.402344 221.539062 249.707031 221.539062 C 247.011719 221.539062 244.816406 223.726562 244.816406 226.414062 C 244.816406 229.101562 247.011719 231.289062 249.707031 231.289062 Z M 252.148438 192.289062 C 254.84375 192.289062 257.039062 190.101562 257.039062 187.414062 C 257.039062 184.726562 254.84375 182.539062 252.148438 182.539062 C 249.453125 182.539062 247.261719 184.726562 247.261719 187.414062 C 247.261719 190.101562 249.453125 192.289062 252.148438 192.289062 Z M 254.59375 138.664062 C 254.59375 135.976562 252.402344 133.789062 249.707031 133.789062 C 247.011719 133.789062 244.816406 135.976562 244.816406 138.664062 C 244.816406 141.351562 247.011719 143.539062 249.707031 143.539062 C 252.402344 143.539062 254.59375 141.351562 254.59375 138.664062 Z M 220.378906 124.039062 C 220.378906 121.351562 218.1875 119.164062 215.492188 119.164062 C 212.796875 119.164062 210.601562 121.351562 210.601562 124.039062 C 210.601562 126.726562 212.796875 128.914062 215.492188 128.914062 C 218.1875 128.914062 220.378906 126.726562 220.378906 124.039062 Z M 149.507812 119.164062 C 146.8125 119.164062 144.617188 121.351562 144.617188 124.039062 C 144.617188 126.726562 146.8125 128.914062 149.507812 128.914062 C 152.199219 128.914062 154.394531 126.726562 154.394531 124.039062 C 154.394531 121.351562 152.199219 119.164062 149.507812 119.164062 Z M 127.511719 148.414062 C 124.816406 148.414062 122.625 150.601562 122.625 153.289062 C 122.625 155.976562 124.816406 158.164062 127.511719 158.164062 C 130.207031 158.164062 132.398438 155.976562 132.398438 153.289062 C 132.398438 150.601562 130.207031 148.414062 127.511719 148.414062 Z M 122.625 182.539062 C 119.929688 182.539062 117.734375 184.726562 117.734375 187.414062 C 117.734375 190.101562 119.929688 192.289062 122.625 192.289062 C 125.316406 192.289062 127.511719 190.101562 127.511719 187.414062 C 127.511719 184.726562 125.316406 182.539062 122.625 182.539062 Z M 132.457031 189.851562 L 132.089844 189.851562 C 131.003906 194.050781 127.171875 197.164062 122.625 197.164062 C 117.234375 197.164062 112.847656 192.789062 112.847656 187.414062 C 112.847656 182.039062 117.234375 177.664062 122.625 177.664062 C 127.171875 177.664062 131.003906 180.777344 132.089844 184.976562 L 132.457031 184.976562 C 132.8125 177.070312 134.890625 169.605469 138.328125 162.945312 L 134.429688 160.167969 C 132.660156 161.941406 130.210938 163.039062 127.511719 163.039062 C 122.121094 163.039062 117.734375 158.664062 117.734375 153.289062 C 117.734375 147.914062 122.121094 143.539062 127.511719 143.539062 C 132.902344 143.539062 137.285156 147.914062 137.285156 153.289062 C 137.285156 154.210938 137.15625 155.101562 136.914062 155.945312 L 140.777344 158.699219 C 145.140625 151.863281 151.011719 146.074219 157.917969 141.804688 L 152.964844 133.15625 C 151.886719 133.5625 150.722656 133.789062 149.507812 133.789062 C 144.117188 133.789062 139.730469 129.414062 139.730469 124.039062 C 139.730469 118.664062 144.117188 114.289062 149.507812 114.289062 C 154.898438 114.289062 159.28125 118.664062 159.28125 124.039062 C 159.28125 126.433594 158.410156 128.625 156.96875 130.324219 L 162.183594 139.425781 C 166.773438 137.136719 171.730469 135.484375 176.941406 134.582031 C 176.585938 133.570312 176.390625 132.484375 176.390625 131.351562 C 176.390625 125.976562 180.773438 121.601562 186.164062 121.601562 C 191.554688 121.601562 195.941406 125.976562 195.941406 131.351562 C 195.941406 132.484375 195.742188 133.570312 195.386719 134.582031 C 199.597656 135.308594 203.640625 136.527344 207.457031 138.175781 L 210.050781 132.136719 C 207.4375 130.382812 205.714844 127.40625 205.714844 124.039062 C 205.714844 118.664062 210.101562 114.289062 215.492188 114.289062 C 220.882812 114.289062 225.265625 118.664062 225.265625 124.039062 C 225.265625 129.414062 220.882812 133.789062 215.492188 133.789062 C 215.214844 133.789062 214.945312 133.773438 214.675781 133.75 L 211.855469 140.316406 C 218.292969 143.824219 223.941406 148.605469 228.445312 154.324219 L 241.183594 143.433594 C 240.386719 142.023438 239.929688 140.394531 239.929688 138.664062 C 239.929688 133.289062 244.316406 128.914062 249.707031 128.914062 C 255.097656 128.914062 259.480469 133.289062 259.480469 138.664062 C 259.480469 144.039062 255.097656 148.414062 249.707031 148.414062 C 247.824219 148.414062 246.066406 147.878906 244.574219 146.957031 L 231.300781 158.304688 C 236.339844 166.054688 239.429688 175.175781 239.871094 184.976562 L 242.683594 184.976562 C 243.769531 180.777344 247.601562 177.664062 252.148438 177.664062 C 257.539062 177.664062 261.925781 182.039062 261.925781 187.414062 C 261.925781 192.789062 257.539062 197.164062 252.148438 197.164062 C 247.601562 197.164062 243.769531 194.050781 242.683594 189.851562 L 239.871094 189.851562 C 239.5 198.097656 237.253906 205.863281 233.542969 212.738281 L 243.191406 219.152344 C 244.921875 217.605469 247.203125 216.664062 249.707031 216.664062 C 255.097656 216.664062 259.480469 221.039062 259.480469 226.414062 C 259.480469 231.789062 255.097656 236.164062 249.707031 236.164062 C 244.316406 236.164062 239.929688 231.789062 239.929688 226.414062 C 239.929688 225.289062 240.125 224.210938 240.476562 223.207031 L 231.03125 216.925781 C 225.816406 224.785156 218.585938 231.199219 210.082031 235.429688 L 210.695312 236.449219 C 211.449219 236.265625 212.234375 236.164062 213.046875 236.164062 C 218.4375 236.164062 222.824219 240.539062 222.824219 245.914062 C 222.824219 251.289062 218.4375 255.664062 213.046875 255.664062 C 207.65625 255.664062 203.273438 251.289062 203.273438 245.914062 C 203.273438 243.097656 204.476562 240.558594 206.394531 238.78125 L 205.578125 237.421875 C 199.550781 239.753906 193.007812 241.039062 186.164062 241.039062 C 181.011719 241.039062 176.023438 240.308594 171.304688 238.953125 L 169.632812 242.707031 C 172.230469 244.460938 173.945312 247.429688 173.945312 250.789062 C 173.945312 256.164062 169.558594 260.539062 164.167969 260.539062 C 158.78125 260.539062 154.394531 256.164062 154.394531 250.789062 C 154.394531 245.414062 158.78125 241.039062 164.167969 241.039062 C 164.453125 241.039062 164.730469 241.050781 165.007812 241.078125 L 166.652344 237.382812 C 159.890625 234.746094 153.792969 230.78125 148.675781 225.8125 L 145.703125 228.777344 C 146.566406 230.230469 147.0625 231.921875 147.0625 233.726562 C 147.0625 239.101562 142.675781 243.476562 137.285156 243.476562 C 131.898438 243.476562 127.511719 239.101562 127.511719 233.726562 C 127.511719 228.351562 131.898438 223.976562 137.285156 223.976562 C 139.097656 223.976562 140.792969 224.472656 142.25 225.332031 L 145.328125 222.257812 C 141.910156 218.273438 139.066406 213.789062 136.921875 208.929688 L 132.359375 210.953125 C 132.386719 211.226562 132.398438 211.507812 132.398438 211.789062 C 132.398438 217.164062 128.015625 221.539062 122.625 221.539062 C 117.234375 221.539062 112.847656 217.164062 112.847656 211.789062 C 112.847656 206.414062 117.234375 202.039062 122.625 202.039062 C 125.992188 202.039062 128.96875 203.746094 130.726562 206.339844 L 135.160156 204.378906 C 133.617188 199.78125 132.6875 194.90625 132.457031 189.851562 " fill-opacity="1" fill-rule="nonzero"/></g><path fill="rgb(21.958923%, 71.369934%, 100%)" d="M 210.601562 165.476562 C 207.910156 165.476562 205.714844 167.664062 205.714844 170.351562 C 205.714844 173.039062 207.910156 175.226562 210.601562 175.226562 C 213.296875 175.226562 215.492188 173.039062 215.492188 170.351562 C 215.492188 167.664062 213.296875 165.476562 210.601562 165.476562 Z M 210.601562 180.101562 C 208.164062 180.101562 205.933594 179.203125 204.21875 177.726562 L 202.554688 179.386719 L 199.101562 175.941406 L 201.402344 173.644531 C 201.03125 172.613281 200.828125 171.503906 200.828125 170.351562 C 200.828125 164.976562 205.214844 160.601562 210.601562 160.601562 C 215.992188 160.601562 220.378906 164.976562 220.378906 170.351562 C 220.378906 175.726562 215.992188 180.101562 210.601562 180.101562 " fill-opacity="1" fill-rule="nonzero"/><path fill="rgb(21.958923%, 71.369934%, 100%)" d="M 193.496094 221.539062 C 196.191406 221.539062 198.382812 219.351562 198.382812 216.664062 C 198.382812 213.976562 196.191406 211.789062 193.496094 211.789062 C 190.800781 211.789062 188.609375 213.976562 188.609375 216.664062 C 188.609375 219.351562 190.800781 221.539062 193.496094 221.539062 Z M 188.1875 208.484375 L 186.289062 202.808594 L 190.925781 201.265625 L 192.820312 206.941406 C 193.046875 206.925781 193.269531 206.914062 193.496094 206.914062 C 198.886719 206.914062 203.273438 211.289062 203.273438 216.664062 C 203.273438 222.039062 198.886719 226.414062 193.496094 226.414062 C 188.105469 226.414062 183.722656 222.039062 183.722656 216.664062 C 183.722656 213.238281 185.5 210.222656 188.1875 208.484375 " fill-opacity="1" fill-rule="nonzero"/><path fill="rgb(21.958923%, 71.369934%, 100%)" d="M 171.5 160.601562 C 168.808594 160.601562 166.613281 162.789062 166.613281 165.476562 C 166.613281 168.164062 168.808594 170.351562 171.5 170.351562 C 174.195312 170.351562 176.390625 168.164062 176.390625 165.476562 C 176.390625 162.789062 174.195312 160.601562 171.5 160.601562 Z M 161.726562 165.476562 C 161.726562 160.101562 166.109375 155.726562 171.5 155.726562 C 176.890625 155.726562 181.277344 160.101562 181.277344 165.476562 C 181.277344 167.28125 180.78125 168.972656 179.917969 170.425781 L 183.003906 173.503906 L 179.550781 176.949219 L 176.464844 173.871094 C 175.007812 174.730469 173.3125 175.226562 171.5 175.226562 C 166.109375 175.226562 161.726562 170.851562 161.726562 165.476562 " fill-opacity="1" fill-rule="nonzero"/><path fill="rgb(21.958923%, 71.369934%, 100%)" d="M 165.390625 199.601562 C 167.414062 199.601562 169.058594 197.960938 169.058594 195.945312 C 169.058594 193.929688 167.414062 192.289062 165.390625 192.289062 C 163.371094 192.289062 161.726562 193.929688 161.726562 195.945312 C 161.726562 197.960938 163.371094 199.601562 165.390625 199.601562 Z M 165.390625 187.414062 C 170.109375 187.414062 173.945312 191.242188 173.945312 195.945312 C 173.945312 200.648438 170.109375 204.476562 165.390625 204.476562 C 160.675781 204.476562 156.839844 200.648438 156.839844 195.945312 C 156.839844 191.242188 160.675781 187.414062 165.390625 187.414062 " fill-opacity="1" fill-rule="nonzero"/><path fill="rgb(21.958923%, 71.369934%, 100%)" d="M 211.824219 202.039062 C 213.847656 202.039062 215.492188 200.398438 215.492188 198.382812 C 215.492188 196.367188 213.847656 194.726562 211.824219 194.726562 C 209.804688 194.726562 208.160156 196.367188 208.160156 198.382812 C 208.160156 200.398438 209.804688 202.039062 211.824219 202.039062 Z M 203.550781 196.21875 L 197.027344 191.878906 L 199.738281 187.824219 L 206.097656 192.050781 C 207.617188 190.683594 209.625 189.851562 211.824219 189.851562 C 216.542969 189.851562 220.378906 193.679688 220.378906 198.382812 C 220.378906 203.085938 216.542969 206.914062 211.824219 206.914062 C 207.109375 206.914062 203.273438 203.085938 203.273438 198.382812 C 203.273438 197.632812 203.371094 196.910156 203.550781 196.21875 " fill-opacity="1" fill-rule="nonzero"/></svg>